<mxfile host="app.diagrams.net" agent="Mozilla/5.0 (Windows NT 10.0; Win64; x64; rv:144.0) Gecko/20100101 Firefox/144.0" version="28.2.7">
  <diagram name="Page-1" id="0cbzt4NKIw_keQHGqDQI">
    <mxGraphModel dx="2612" dy="883" grid="1" gridSize="10" guides="1" tooltips="1" connect="1" arrows="1" fold="1" page="1" pageScale="1" pageWidth="1169" pageHeight="827" math="0" shadow="0">
      <root>
        <mxCell id="0" />
        <mxCell id="1" parent="0" />
        <mxCell id="hp5BAG6Hfxuwileg1J9u-1" value="icm-gradle-plugin" style="rounded=0;whiteSpace=wrap;html=1;" parent="1" vertex="1">
          <mxGeometry x="280" y="260" width="120" height="40" as="geometry" />
        </mxCell>
        <mxCell id="hp5BAG6Hfxuwileg1J9u-2" value="test-gradle-plugin" style="rounded=0;whiteSpace=wrap;html=1;" parent="1" vertex="1">
          <mxGeometry x="380" y="460" width="140" height="40" as="geometry" />
        </mxCell>
        <mxCell id="hp5BAG6Hfxuwileg1J9u-3" value="testImplementation" style="endArrow=classic;html=1;rounded=0;edgeStyle=orthogonalEdgeStyle;" parent="1" source="hp5BAG6Hfxuwileg1J9u-1" target="hp5BAG6Hfxuwileg1J9u-2" edge="1">
          <mxGeometry x="0.8333" y="-50" width="50" height="50" relative="1" as="geometry">
            <mxPoint x="560" y="620" as="sourcePoint" />
            <mxPoint x="610" y="570" as="targetPoint" />
            <Array as="points">
              <mxPoint x="360" y="340" />
              <mxPoint x="440" y="340" />
            </Array>
            <mxPoint as="offset" />
          </mxGeometry>
        </mxCell>
        <mxCell id="hp5BAG6Hfxuwileg1J9u-5" value="semantic-version" style="rounded=0;whiteSpace=wrap;html=1;" parent="1" vertex="1">
          <mxGeometry x="280" y="380" width="120" height="40" as="geometry" />
        </mxCell>
        <mxCell id="hp5BAG6Hfxuwileg1J9u-6" value="implementation" style="endArrow=classic;html=1;rounded=0;edgeStyle=orthogonalEdgeStyle;" parent="1" source="hp5BAG6Hfxuwileg1J9u-1" target="hp5BAG6Hfxuwileg1J9u-5" edge="1">
          <mxGeometry x="-0.25" width="50" height="50" relative="1" as="geometry">
            <mxPoint x="360" y="300" as="sourcePoint" />
            <mxPoint x="400" y="420" as="targetPoint" />
            <Array as="points">
              <mxPoint x="320" y="320" />
              <mxPoint x="320" y="320" />
            </Array>
            <mxPoint as="offset" />
          </mxGeometry>
        </mxCell>
        <mxCell id="hp5BAG6Hfxuwileg1J9u-7" value="icm-docker-plugin" style="rounded=0;whiteSpace=wrap;html=1;" parent="1" vertex="1">
          <mxGeometry x="480" y="260" width="120" height="40" as="geometry" />
        </mxCell>
        <mxCell id="hp5BAG6Hfxuwileg1J9u-8" value="testImplementation" style="endArrow=classic;html=1;rounded=0;edgeStyle=orthogonalEdgeStyle;" parent="1" source="hp5BAG6Hfxuwileg1J9u-7" target="hp5BAG6Hfxuwileg1J9u-2" edge="1">
          <mxGeometry x="0.8182" y="50" width="50" height="50" relative="1" as="geometry">
            <mxPoint x="350" y="310" as="sourcePoint" />
            <mxPoint x="350" y="430" as="targetPoint" />
            <Array as="points">
              <mxPoint x="520" y="340" />
              <mxPoint x="460" y="340" />
            </Array>
            <mxPoint as="offset" />
          </mxGeometry>
        </mxCell>
        <mxCell id="hp5BAG6Hfxuwileg1J9u-9" value="implementation" style="endArrow=classic;html=1;rounded=0;edgeStyle=orthogonalEdgeStyle;fontColor=light-dark(#ff0000, #ededed);" parent="1" source="hp5BAG6Hfxuwileg1J9u-7" target="hp5BAG6Hfxuwileg1J9u-1" edge="1">
          <mxGeometry y="10" width="50" height="50" relative="1" as="geometry">
            <mxPoint x="370" y="310" as="sourcePoint" />
            <mxPoint x="520" y="430" as="targetPoint" />
            <Array as="points">
              <mxPoint x="520" y="230" />
              <mxPoint x="360" y="230" />
            </Array>
            <mxPoint as="offset" />
          </mxGeometry>
        </mxCell>
        <mxCell id="hp5BAG6Hfxuwileg1J9u-10" value="icmjobrunner" style="rounded=0;whiteSpace=wrap;html=1;" parent="1" vertex="1">
          <mxGeometry x="480" y="380" width="120" height="40" as="geometry" />
        </mxCell>
        <mxCell id="hp5BAG6Hfxuwileg1J9u-11" value="implementation" style="endArrow=classic;html=1;rounded=0;edgeStyle=orthogonalEdgeStyle;" parent="1" source="hp5BAG6Hfxuwileg1J9u-7" target="hp5BAG6Hfxuwileg1J9u-10" edge="1">
          <mxGeometry x="0.25" width="50" height="50" relative="1" as="geometry">
            <mxPoint x="570" y="290" as="sourcePoint" />
            <mxPoint x="410" y="290" as="targetPoint" />
            <Array as="points">
              <mxPoint x="560" y="360" />
              <mxPoint x="560" y="360" />
            </Array>
            <mxPoint as="offset" />
          </mxGeometry>
        </mxCell>
        <mxCell id="hp5BAG6Hfxuwileg1J9u-12" value="extendedversion" style="rounded=0;whiteSpace=wrap;html=1;" parent="1" vertex="1">
          <mxGeometry x="720" y="380" width="120" height="40" as="geometry" />
        </mxCell>
        <mxCell id="hp5BAG6Hfxuwileg1J9u-13" value="gitflow-version-gradle-plugin" style="rounded=0;whiteSpace=wrap;html=1;" parent="1" vertex="1">
          <mxGeometry x="640" y="260" width="170" height="40" as="geometry" />
        </mxCell>
        <mxCell id="hp5BAG6Hfxuwileg1J9u-14" value="testImplementation" style="endArrow=classic;html=1;rounded=0;edgeStyle=orthogonalEdgeStyle;" parent="1" source="hp5BAG6Hfxuwileg1J9u-13" target="hp5BAG6Hfxuwileg1J9u-2" edge="1">
          <mxGeometry x="0.3529" y="-10" width="50" height="50" relative="1" as="geometry">
            <mxPoint x="350" y="310" as="sourcePoint" />
            <mxPoint x="350" y="430" as="targetPoint" />
            <Array as="points">
              <mxPoint x="680" y="480" />
            </Array>
            <mxPoint as="offset" />
          </mxGeometry>
        </mxCell>
        <mxCell id="hp5BAG6Hfxuwileg1J9u-15" value="implementation" style="endArrow=classic;html=1;rounded=0;edgeStyle=orthogonalEdgeStyle;" parent="1" source="hp5BAG6Hfxuwileg1J9u-13" target="hp5BAG6Hfxuwileg1J9u-12" edge="1">
          <mxGeometry width="50" height="50" relative="1" as="geometry">
            <mxPoint x="650" y="310" as="sourcePoint" />
            <mxPoint x="650" y="430" as="targetPoint" />
            <Array as="points">
              <mxPoint x="780" y="310" />
              <mxPoint x="780" y="310" />
            </Array>
            <mxPoint as="offset" />
          </mxGeometry>
        </mxCell>
        <mxCell id="hp5BAG6Hfxuwileg1J9u-16" value="isml-gradle-plugin" style="rounded=0;whiteSpace=wrap;html=1;" parent="1" vertex="1">
          <mxGeometry x="940" y="260" width="140" height="40" as="geometry" />
        </mxCell>
        <mxCell id="hp5BAG6Hfxuwileg1J9u-17" value="testImplementation" style="endArrow=classic;html=1;rounded=0;edgeStyle=orthogonalEdgeStyle;" parent="1" source="hp5BAG6Hfxuwileg1J9u-16" target="hp5BAG6Hfxuwileg1J9u-2" edge="1">
          <mxGeometry x="-0.2927" y="-10" width="50" height="50" relative="1" as="geometry">
            <mxPoint x="865" y="310" as="sourcePoint" />
            <mxPoint x="560" y="570" as="targetPoint" />
            <Array as="points">
              <mxPoint x="1020" y="540" />
              <mxPoint x="480" y="540" />
            </Array>
            <mxPoint as="offset" />
          </mxGeometry>
        </mxCell>
        <mxCell id="hp5BAG6Hfxuwileg1J9u-18" value="resourcelist-gradle-plugin" style="rounded=0;whiteSpace=wrap;html=1;" parent="1" vertex="1">
          <mxGeometry x="840" y="460" width="160" height="40" as="geometry" />
        </mxCell>
        <mxCell id="hp5BAG6Hfxuwileg1J9u-19" value="implementation" style="endArrow=classic;html=1;rounded=0;edgeStyle=orthogonalEdgeStyle;strokeColor=default;align=center;verticalAlign=middle;fontFamily=Helvetica;fontSize=11;fontColor=light-dark(#ff0000, #ededed);labelBackgroundColor=default;" parent="1" source="hp5BAG6Hfxuwileg1J9u-16" target="hp5BAG6Hfxuwileg1J9u-18" edge="1">
          <mxGeometry x="-0.5" width="50" height="50" relative="1" as="geometry">
            <mxPoint x="1010" y="310" as="sourcePoint" />
            <mxPoint x="530" y="730" as="targetPoint" />
            <Array as="points">
              <mxPoint x="960" y="380" />
              <mxPoint x="960" y="380" />
            </Array>
            <mxPoint as="offset" />
          </mxGeometry>
        </mxCell>
        <mxCell id="hp5BAG6Hfxuwileg1J9u-20" value="isml-parser" style="rounded=0;whiteSpace=wrap;html=1;" parent="1" vertex="1">
          <mxGeometry x="1040" y="460" width="80" height="40" as="geometry" />
        </mxCell>
        <mxCell id="hp5BAG6Hfxuwileg1J9u-21" value="compileOnly" style="endArrow=classic;html=1;rounded=0;edgeStyle=orthogonalEdgeStyle;" parent="1" source="hp5BAG6Hfxuwileg1J9u-16" target="hp5BAG6Hfxuwileg1J9u-20" edge="1">
          <mxGeometry x="-0.5" width="50" height="50" relative="1" as="geometry">
            <mxPoint x="1070" y="280" as="sourcePoint" />
            <mxPoint x="1090" y="460" as="targetPoint" />
            <Array as="points">
              <mxPoint x="1060" y="340" />
              <mxPoint x="1060" y="340" />
            </Array>
            <mxPoint as="offset" />
          </mxGeometry>
        </mxCell>
        <mxCell id="hp5BAG6Hfxuwileg1J9u-22" value="javacc-gradle-plugin" style="rounded=0;whiteSpace=wrap;html=1;" parent="1" vertex="1">
          <mxGeometry x="1000" y="580" width="160" height="40" as="geometry" />
        </mxCell>
        <mxCell id="hp5BAG6Hfxuwileg1J9u-23" value="plugin" style="endArrow=classic;html=1;rounded=0;edgeStyle=orthogonalEdgeStyle;" parent="1" source="hp5BAG6Hfxuwileg1J9u-20" target="hp5BAG6Hfxuwileg1J9u-22" edge="1">
          <mxGeometry width="50" height="50" relative="1" as="geometry">
            <mxPoint x="1120" y="270" as="sourcePoint" />
            <mxPoint x="1120" y="670" as="targetPoint" />
            <Array as="points">
              <mxPoint x="1080" y="560" />
              <mxPoint x="1080" y="560" />
            </Array>
            <mxPoint as="offset" />
          </mxGeometry>
        </mxCell>
        <mxCell id="hp5BAG6Hfxuwileg1J9u-24" value="testImplementation" style="endArrow=classic;html=1;rounded=0;edgeStyle=orthogonalEdgeStyle;" parent="1" source="hp5BAG6Hfxuwileg1J9u-22" target="hp5BAG6Hfxuwileg1J9u-2" edge="1">
          <mxGeometry x="-0.8205" y="-10" width="50" height="50" relative="1" as="geometry">
            <mxPoint x="1010" y="310" as="sourcePoint" />
            <mxPoint x="580" y="590" as="targetPoint" />
            <Array as="points">
              <mxPoint x="1060" y="640" />
              <mxPoint x="440" y="640" />
            </Array>
            <mxPoint as="offset" />
          </mxGeometry>
        </mxCell>
        <mxCell id="hp5BAG6Hfxuwileg1J9u-25" value="testImplementation" style="endArrow=classic;html=1;rounded=0;edgeStyle=orthogonalEdgeStyle;" parent="1" source="hp5BAG6Hfxuwileg1J9u-18" target="hp5BAG6Hfxuwileg1J9u-2" edge="1">
          <mxGeometry x="-0.6957" y="-10" width="50" height="50" relative="1" as="geometry">
            <mxPoint x="1010" y="310" as="sourcePoint" />
            <mxPoint x="580" y="590" as="targetPoint" />
            <Array as="points">
              <mxPoint x="920" y="520" />
              <mxPoint x="500" y="520" />
            </Array>
            <mxPoint as="offset" />
          </mxGeometry>
        </mxCell>
        <mxCell id="hp5BAG6Hfxuwileg1J9u-26" value="icm-as" style="rounded=0;whiteSpace=wrap;html=1;strokeColor=default;strokeWidth=2;fontStyle=1" parent="1" vertex="1">
          <mxGeometry x="640" y="40" width="140" height="60" as="geometry" />
        </mxCell>
        <mxCell id="hp5BAG6Hfxuwileg1J9u-27" value="plugin" style="endArrow=classic;html=1;rounded=0;edgeStyle=orthogonalEdgeStyle;" parent="1" source="hp5BAG6Hfxuwileg1J9u-26" target="hp5BAG6Hfxuwileg1J9u-22" edge="1">
          <mxGeometry x="-0.561" y="10" width="50" height="50" relative="1" as="geometry">
            <mxPoint x="890" y="60" as="sourcePoint" />
            <mxPoint x="890" y="180" as="targetPoint" />
            <Array as="points">
              <mxPoint x="260" y="80" />
              <mxPoint x="260" y="600" />
            </Array>
            <mxPoint as="offset" />
          </mxGeometry>
        </mxCell>
        <mxCell id="hp5BAG6Hfxuwileg1J9u-28" value="plugin" style="endArrow=classic;html=1;rounded=0;edgeStyle=orthogonalEdgeStyle;" parent="1" source="hp5BAG6Hfxuwileg1J9u-26" target="hp5BAG6Hfxuwileg1J9u-7" edge="1">
          <mxGeometry x="0.4286" y="10" width="50" height="50" relative="1" as="geometry">
            <mxPoint x="670" y="110" as="sourcePoint" />
            <mxPoint x="350" y="270" as="targetPoint" />
            <Array as="points">
              <mxPoint x="680" y="200" />
              <mxPoint x="560" y="200" />
            </Array>
            <mxPoint as="offset" />
          </mxGeometry>
        </mxCell>
        <mxCell id="hp5BAG6Hfxuwileg1J9u-29" value="plugin" style="endArrow=classic;html=1;rounded=0;edgeStyle=orthogonalEdgeStyle;" parent="1" source="hp5BAG6Hfxuwileg1J9u-26" target="hp5BAG6Hfxuwileg1J9u-16" edge="1">
          <mxGeometry x="-0.0857" y="-10" width="50" height="50" relative="1" as="geometry">
            <mxPoint x="690" y="110" as="sourcePoint" />
            <mxPoint x="630" y="270" as="targetPoint" />
            <Array as="points">
              <mxPoint x="960" y="90" />
            </Array>
            <mxPoint as="offset" />
          </mxGeometry>
        </mxCell>
        <mxCell id="hp5BAG6Hfxuwileg1J9u-30" value="plugin" style="endArrow=classic;html=1;rounded=0;edgeStyle=orthogonalEdgeStyle;" parent="1" source="hp5BAG6Hfxuwileg1J9u-26" target="hp5BAG6Hfxuwileg1J9u-13" edge="1">
          <mxGeometry x="0.75" y="-20" width="50" height="50" relative="1" as="geometry">
            <mxPoint x="730" y="110" as="sourcePoint" />
            <mxPoint x="1075" y="270" as="targetPoint" />
            <Array as="points">
              <mxPoint x="700" y="240" />
              <mxPoint x="700" y="240" />
            </Array>
            <mxPoint as="offset" />
          </mxGeometry>
        </mxCell>
        <mxCell id="hp5BAG6Hfxuwileg1J9u-31" value="plugin" style="endArrow=classic;html=1;rounded=0;edgeStyle=orthogonalEdgeStyle;" parent="1" source="hp5BAG6Hfxuwileg1J9u-26" target="hp5BAG6Hfxuwileg1J9u-18" edge="1">
          <mxGeometry x="0.52" width="50" height="50" relative="1" as="geometry">
            <mxPoint x="730" y="110" as="sourcePoint" />
            <mxPoint x="1075" y="270" as="targetPoint" />
            <Array as="points">
              <mxPoint x="740" y="160" />
              <mxPoint x="880" y="160" />
            </Array>
            <mxPoint as="offset" />
          </mxGeometry>
        </mxCell>
        <mxCell id="hp5BAG6Hfxuwileg1J9u-32" value="buildSrc:implementation" style="endArrow=classic;html=1;rounded=0;edgeStyle=orthogonalEdgeStyle;strokeColor=default;align=center;verticalAlign=middle;fontFamily=Helvetica;fontSize=11;fontColor=light-dark(#ff0000, #ededed);labelBackgroundColor=default;" parent="1" source="hp5BAG6Hfxuwileg1J9u-26" target="hp5BAG6Hfxuwileg1J9u-1" edge="1">
          <mxGeometry x="0.32" y="10" width="50" height="50" relative="1" as="geometry">
            <mxPoint x="570" y="290" as="sourcePoint" />
            <mxPoint x="410" y="290" as="targetPoint" />
            <Array as="points">
              <mxPoint x="660" y="160" />
              <mxPoint x="340" y="160" />
            </Array>
            <mxPoint as="offset" />
          </mxGeometry>
        </mxCell>
        <mxCell id="hp5BAG6Hfxuwileg1J9u-33" value="buildSrc:implementation" style="endArrow=classic;html=1;rounded=0;edgeStyle=orthogonalEdgeStyle;strokeColor=default;align=center;verticalAlign=middle;fontFamily=Helvetica;fontSize=11;fontColor=light-dark(#ff0000, #ededed);labelBackgroundColor=default;" parent="1" source="hp5BAG6Hfxuwileg1J9u-26" target="hp5BAG6Hfxuwileg1J9u-13" edge="1">
          <mxGeometry x="0.75" y="60" width="50" height="50" relative="1" as="geometry">
            <mxPoint x="650" y="90" as="sourcePoint" />
            <mxPoint x="350" y="270" as="targetPoint" />
            <Array as="points">
              <mxPoint x="720" y="230" />
              <mxPoint x="720" y="230" />
            </Array>
            <mxPoint as="offset" />
          </mxGeometry>
        </mxCell>
        <mxCell id="hp5BAG6Hfxuwileg1J9u-34" value="escrow-gradle-plugin" style="rounded=0;whiteSpace=wrap;html=1;" parent="1" vertex="1">
          <mxGeometry x="1120" y="260" width="160" height="40" as="geometry" />
        </mxCell>
        <mxCell id="hp5BAG6Hfxuwileg1J9u-35" value="plugin" style="endArrow=classic;html=1;rounded=0;edgeStyle=orthogonalEdgeStyle;" parent="1" source="hp5BAG6Hfxuwileg1J9u-26" target="hp5BAG6Hfxuwileg1J9u-34" edge="1">
          <mxGeometry x="0.3115" y="-10" width="50" height="50" relative="1" as="geometry">
            <mxPoint x="790" y="-30" as="sourcePoint" />
            <mxPoint x="1260" y="50" as="targetPoint" />
            <Array as="points">
              <mxPoint x="1200" y="70" />
            </Array>
            <mxPoint as="offset" />
          </mxGeometry>
        </mxCell>
        <mxCell id="hp5BAG6Hfxuwileg1J9u-36" value="testImplementation" style="endArrow=classic;html=1;rounded=0;edgeStyle=orthogonalEdgeStyle;" parent="1" source="hp5BAG6Hfxuwileg1J9u-34" target="hp5BAG6Hfxuwileg1J9u-2" edge="1">
          <mxGeometry x="-0.4151" y="-10" width="50" height="50" relative="1" as="geometry">
            <mxPoint x="1050" y="310" as="sourcePoint" />
            <mxPoint x="490" y="510" as="targetPoint" />
            <Array as="points">
              <mxPoint x="1200" y="560" />
              <mxPoint x="460" y="560" />
            </Array>
            <mxPoint as="offset" />
          </mxGeometry>
        </mxCell>
        <mxCell id="AhR7chS3qVVTSfA-Sehs-1" value="rest-test-client" style="rounded=0;whiteSpace=wrap;html=1;" parent="1" vertex="1">
          <mxGeometry x="1240" y="460" width="120" height="40" as="geometry" />
        </mxCell>
        <mxCell id="AhR7chS3qVVTSfA-Sehs-2" value="testImplementation" style="endArrow=classic;html=1;rounded=0;edgeStyle=orthogonalEdgeStyle;" parent="1" source="hp5BAG6Hfxuwileg1J9u-26" target="AhR7chS3qVVTSfA-Sehs-1" edge="1">
          <mxGeometry x="0.7333" width="50" height="50" relative="1" as="geometry">
            <mxPoint x="370" y="310" as="sourcePoint" />
            <mxPoint x="450" y="470" as="targetPoint" />
            <Array as="points">
              <mxPoint x="760" y="140" />
              <mxPoint x="1300" y="140" />
            </Array>
            <mxPoint as="offset" />
          </mxGeometry>
        </mxCell>
        <mxCell id="AhR7chS3qVVTSfA-Sehs-3" value="jaxb-gradle-plugin" style="rounded=0;whiteSpace=wrap;html=1;" parent="1" vertex="1">
          <mxGeometry x="1320" y="260" width="120" height="40" as="geometry" />
        </mxCell>
        <mxCell id="AhR7chS3qVVTSfA-Sehs-4" value="testImplementation" style="endArrow=classic;html=1;rounded=0;edgeStyle=orthogonalEdgeStyle;" parent="1" source="AhR7chS3qVVTSfA-Sehs-3" target="hp5BAG6Hfxuwileg1J9u-2" edge="1">
          <mxGeometry x="-0.4459" y="-10" width="50" height="50" relative="1" as="geometry">
            <mxPoint x="1070" y="630" as="sourcePoint" />
            <mxPoint x="450" y="510" as="targetPoint" />
            <Array as="points">
              <mxPoint x="1380" y="660" />
              <mxPoint x="420" y="660" />
            </Array>
            <mxPoint as="offset" />
          </mxGeometry>
        </mxCell>
        <mxCell id="AhR7chS3qVVTSfA-Sehs-5" value="plugin" style="endArrow=classic;html=1;rounded=0;edgeStyle=orthogonalEdgeStyle;" parent="1" source="hp5BAG6Hfxuwileg1J9u-26" target="AhR7chS3qVVTSfA-Sehs-3" edge="1">
          <mxGeometry x="0.4321" y="-10" width="50" height="50" relative="1" as="geometry">
            <mxPoint x="770" y="80" as="sourcePoint" />
            <mxPoint x="1210" y="270" as="targetPoint" />
            <Array as="points">
              <mxPoint x="1380" y="50" />
            </Array>
            <mxPoint as="offset" />
          </mxGeometry>
        </mxCell>
        <mxCell id="AhR7chS3qVVTSfA-Sehs-6" value="architectural-report-gradle-plugin" style="rounded=0;whiteSpace=wrap;html=1;" parent="1" vertex="1">
          <mxGeometry x="40" y="260" width="200" height="40" as="geometry" />
        </mxCell>
        <mxCell id="AhR7chS3qVVTSfA-Sehs-7" value="plugin" style="endArrow=classic;html=1;rounded=0;edgeStyle=orthogonalEdgeStyle;" parent="1" source="hp5BAG6Hfxuwileg1J9u-26" target="AhR7chS3qVVTSfA-Sehs-6" edge="1">
          <mxGeometry x="0.3714" y="10" width="50" height="50" relative="1" as="geometry">
            <mxPoint x="770" y="60" as="sourcePoint" />
            <mxPoint x="1390" y="270" as="targetPoint" />
            <Array as="points">
              <mxPoint x="140" y="60" />
            </Array>
            <mxPoint as="offset" />
          </mxGeometry>
        </mxCell>
        <mxCell id="AhR7chS3qVVTSfA-Sehs-8" value="testImplementation" style="endArrow=classic;html=1;rounded=0;edgeStyle=orthogonalEdgeStyle;" parent="1" source="AhR7chS3qVVTSfA-Sehs-6" target="hp5BAG6Hfxuwileg1J9u-2" edge="1">
          <mxGeometry x="0.0952" y="10" width="50" height="50" relative="1" as="geometry">
            <mxPoint x="1390" y="310" as="sourcePoint" />
            <mxPoint x="430" y="510" as="targetPoint" />
            <Array as="points">
              <mxPoint x="140" y="480" />
            </Array>
            <mxPoint as="offset" />
          </mxGeometry>
        </mxCell>
        <mxCell id="V0ZVYWBeJVzFdvoWyZ7N-3" value="implementation" style="endArrow=classic;html=1;rounded=0;edgeStyle=orthogonalEdgeStyle;fontColor=light-dark(#ff0000, #ededed);" edge="1" parent="1" source="AhR7chS3qVVTSfA-Sehs-6" target="hp5BAG6Hfxuwileg1J9u-1">
          <mxGeometry y="-10" width="50" height="50" relative="1" as="geometry">
            <mxPoint x="190" y="180" as="sourcePoint" />
            <mxPoint x="310" y="180" as="targetPoint" />
            <Array as="points">
              <mxPoint x="160" y="230" />
              <mxPoint x="320" y="230" />
            </Array>
            <mxPoint as="offset" />
          </mxGeometry>
        </mxCell>
      </root>
    </mxGraphModel>
  </diagram>
</mxfile>
